<svg width="48" height="48" viewBox="0 0 48 48" fill="none" xmlns="http://www.w3.org/2000/svg">
<g filter="url(#filter0_i_139_425)">
<g clip-path="url(#clip0_139_425)">
<rect width="48" height="48" rx="24" fill="#ECFDF5"/>
<line y1="12.25" x2="49" y2="12.25" stroke="#B5E8D5" stroke-opacity="0.5"/>
<line y1="35.75" x2="49" y2="35.75" stroke="#B5E8D5" stroke-opacity="0.5"/>
<line x1="11.75" y1="48" x2="11.75" y2="1" stroke="#B5E8D5" stroke-opacity="0.5"/>
<line x1="36.25" y1="48" x2="36.25" y2="1" stroke="#B5E8D5" stroke-opacity="0.5"/>
<path opacity="0.25" d="M15 20.6236C15 19.3429 15 18.7026 15.2462 18.0337C15.4367 17.5161 15.8755 16.8577 16.2799 16.4827C16.8025 15.998 17.2835 15.7974 18.2455 15.3962C19.9572 14.6823 22.0923 14 24 14C25.9077 14 28.0428 14.6823 29.7545 15.3962C30.7165 15.7974 31.1975 15.998 31.7201 16.4827C32.1245 16.8577 32.5633 17.5161 32.7538 18.0337C33 18.7026 33 19.3429 33 20.6236V22.6972C33 25.0033 33 26.1564 32.6064 27.3643C32.3032 28.295 31.5913 29.5242 30.9349 30.2504C30.083 31.1929 29.3133 31.6344 27.774 32.5175C26.3241 33.3494 24.9018 34 24 34C23.0982 34 21.6759 33.3494 20.226 32.5175C18.6867 31.6344 17.917 31.1929 17.0651 30.2504C16.4087 29.5242 15.6968 28.295 15.3936 27.3643C15 26.1564 15 25.0033 15 22.6972V20.6236Z" fill="#99DCC3"/>
<path fill-rule="evenodd" clip-rule="evenodd" d="M18.6304 16.3191C20.3068 15.62 22.2938 15 24 15C25.7062 15 27.6932 15.62 29.3696 16.3191C30.3583 16.7314 30.6692 16.8719 31.0401 17.2159C31.329 17.4838 31.6792 18.0094 31.8153 18.3791C31.9872 18.846 32 19.2871 32 20.6236L32 22.6972C32 25.0538 31.9897 26.0293 31.6556 27.0545C31.3959 27.8516 30.7552 28.9579 30.193 29.5798C29.4635 30.387 28.8328 30.7572 27.2764 31.6501C26.5719 32.0543 25.8956 32.4018 25.3017 32.6456C24.684 32.8992 24.2505 33 24 33C23.7495 33 23.316 32.8992 22.6983 32.6456C22.1044 32.4018 21.4281 32.0543 20.7236 31.6501C19.1672 30.7572 18.5365 30.387 17.807 29.5798C17.2448 28.9579 16.6041 27.8516 16.3444 27.0545C16.0103 26.0293 16 25.0538 16 22.6972L16 20.6236C16 19.2871 16.0128 18.846 16.1847 18.3791C16.3208 18.0094 16.671 17.4838 16.9599 17.2159C17.3308 16.8719 17.6418 16.7314 18.6304 16.3191ZM24 13C21.8909 13 19.6077 13.7446 17.8606 14.4732L17.7782 14.5076C16.8866 14.8791 16.2542 15.1426 15.5998 15.7495C15.08 16.2317 14.5527 17.0229 14.3078 17.6882C13.9992 18.5266 13.9995 19.336 14 20.4877L14 20.6236L14 22.6972L14 22.8447C13.9998 25.0114 13.9996 26.3141 14.4428 27.6741C14.7896 28.7384 15.5727 30.0905 16.3233 30.9209C17.282 31.9817 18.1773 32.4952 19.6564 33.3437L19.7283 33.3849C20.4738 33.8126 21.2336 34.2063 21.9388 34.4958C22.6201 34.7755 23.3487 35 24 35C24.6513 35 25.3799 34.7755 26.0612 34.4958C26.7664 34.2063 27.5262 33.8126 28.2717 33.3849L28.3436 33.3437L28.3436 33.3437C29.8227 32.4952 30.718 31.9817 31.6768 30.9209C32.4273 30.0905 33.2105 28.7384 33.5572 27.6741C34.0004 26.3141 34.0002 25.0114 34 22.8447L34 22.8447L34 22.6972L34 20.6236L34 20.4877C34.0005 19.336 34.0008 18.5266 33.6922 17.6882C33.4473 17.0229 32.92 16.2317 32.4002 15.7495C31.7458 15.1426 31.1134 14.8791 30.2218 14.5076L30.1394 14.4732C28.3923 13.7446 26.1092 13 24 13ZM28.2071 22.2071C28.5976 21.8166 28.5976 21.1834 28.2071 20.7929C27.8166 20.4024 27.1834 20.4024 26.7929 20.7929L23 24.5858L21.7071 23.2929C21.3166 22.9024 20.6834 22.9024 20.2929 23.2929C19.9024 23.6834 19.9024 24.3166 20.2929 24.7071L22.2929 26.7071C22.6834 27.0976 23.3166 27.0976 23.7071 26.7071L28.2071 22.2071Z" fill="#99DCC3"/>
</g>
<rect x="1.5" y="1.5" width="45" height="45" rx="22.5" stroke="#B5E8D5" stroke-width="3"/>
</g>
<defs>
<filter id="filter0_i_139_425" x="0" y="0" width="48" height="50" filterUnits="userSpaceOnUse" color-interpolation-filters="sRGB">
<feFlood flood-opacity="0" result="BackgroundImageFix"/>
<feBlend mode="normal" in="SourceGraphic" in2="BackgroundImageFix" result="shape"/>
<feColorMatrix in="SourceAlpha" type="matrix" values="0 0 0 0 0 0 0 0 0 0 0 0 0 0 0 0 0 0 127 0" result="hardAlpha"/>
<feOffset dy="2"/>
<feGaussianBlur stdDeviation="8"/>
<feComposite in2="hardAlpha" operator="arithmetic" k2="-1" k3="1"/>
<feColorMatrix type="matrix" values="0 0 0 0 0.709804 0 0 0 0 0.909804 0 0 0 0 0.835294 0 0 0 1 0"/>
<feBlend mode="normal" in2="shape" result="effect1_innerShadow_139_425"/>
</filter>
<clipPath id="clip0_139_425">
<rect width="48" height="48" rx="24" fill="white"/>
</clipPath>
</defs>
</svg>
