<svg width="48" height="48" viewBox="0 0 48 48" fill="none" xmlns="http://www.w3.org/2000/svg">
<g filter="url(#filter0_i_139_358)">
<g clip-path="url(#clip0_139_358)">
<rect width="48" height="48" rx="24" fill="#ECFDF5"/>
<line y1="12.25" x2="49" y2="12.25" stroke="#B5E8D5" stroke-opacity="0.5"/>
<line y1="35.75" x2="49" y2="35.75" stroke="#B5E8D5" stroke-opacity="0.5"/>
<line x1="11.75" y1="48" x2="11.75" y2="1" stroke="#B5E8D5" stroke-opacity="0.5"/>
<line x1="36.25" y1="48" x2="36.25" y2="1" stroke="#B5E8D5" stroke-opacity="0.5"/>
<path opacity="0.25" d="M33.0262 22.5793L33.7641 20.1196C34.183 18.7234 34.3924 18.0253 34.241 17.472C34.1083 16.9874 33.7981 16.5705 33.3721 16.3041C32.8856 16.0001 32.1568 16.0001 30.6991 16.0001H16.6923L18.1414 22.2794C18.4479 23.6078 18.6012 24.2721 18.9625 24.7675C19.2811 25.2045 19.712 25.5473 20.2094 25.7595C20.7734 26.0001 21.4551 26.0001 22.8185 26.0001H28.4287C29.7101 26.0001 30.3508 26.0001 30.8913 25.7818C31.3684 25.5891 31.7879 25.277 32.1095 24.8754C32.4739 24.4204 32.658 23.8067 33.0262 22.5793Z" fill="#99DCC3"/>
<path fill-rule="evenodd" clip-rule="evenodd" d="M13.5001 14H13.5L13.0001 14.0001C12.4478 14.0001 12.0001 13.5525 12 13.0002C11.9999 12.4479 12.4476 12.0001 12.9999 12.0001L13.4999 12L13.5 13.0001L13.5 12L13.5156 12H13.5156C13.6081 12 13.6771 12 13.7414 12.0021C15.508 12.0586 17.028 13.2678 17.4803 14.9765L17.4864 15.0001H30.6991L30.7439 15.0001H30.7439C31.4346 15 32.0188 15 32.4888 15.042C32.9751 15.0855 33.4629 15.1816 33.9021 15.4562C34.5412 15.8557 35.0065 16.481 35.2055 17.2079C35.3422 17.7075 35.2941 18.2024 35.196 18.6806C35.1012 19.1429 34.9333 19.7025 34.7349 20.3639L34.7349 20.364L34.722 20.4069L33.984 22.8667L33.9313 23.0428C33.6159 24.0973 33.3786 24.8905 32.8901 25.5005C32.4612 26.036 31.9019 26.4522 31.2657 26.7091C30.5411 27.0017 29.7131 27.001 28.6126 27.0002H28.6125L28.4287 27.0001H22.8185H22.7827C22.7008 27.0001 22.6206 27.0001 22.5421 27H18C17.4477 27 17 27.4477 17 28C17 28.5523 17.4477 29 18 29H21H29H33C33.5523 29 34 29.4477 34 30C34 30.5523 33.5523 31 33 31H31.8293C31.9398 31.3128 32 31.6494 32 32C32 33.6569 30.6569 35 29 35C27.3431 35 26 33.6569 26 32C26 31.6494 26.0602 31.3128 26.1707 31H23.8293C23.9398 31.3128 24 31.6494 24 32C24 33.6569 22.6569 35 21 35C19.3431 35 18 33.6569 18 32C18 31.6494 18.0602 31.3128 18.1707 31H18C16.3431 31 15 29.6569 15 28C15 26.3667 16.3053 25.0382 17.9296 25.0008C17.7818 24.7296 17.6717 24.4408 17.576 24.1311C17.4434 23.7019 17.3215 23.1737 17.175 22.5391L17.175 22.5391L17.167 22.5042L15.7179 16.2249L15.5878 15.6609C15.5619 15.549 15.554 15.5154 15.5469 15.4882C15.3207 14.6339 14.5607 14.0293 13.6774 14.001C13.6494 14.0001 13.6149 14 13.5001 14H13.5001ZM26.0112 25.0001C26.0074 25 26.0037 25 26 25H22.5903C22.0174 24.9996 21.612 24.9964 21.2871 24.9727C20.9332 24.9468 20.7431 24.9 20.6018 24.8397C20.2702 24.6982 19.9829 24.4697 19.7705 24.1783C19.68 24.0542 19.5916 23.8795 19.4868 23.5405C19.3783 23.1895 19.2723 22.7328 19.1158 22.0545L17.9494 17.0001H30.6991C31.4466 17.0001 31.9405 17.001 32.3108 17.0341C32.6749 17.0667 32.7948 17.1226 32.842 17.1521C33.055 17.2853 33.2101 17.4937 33.2764 17.736C33.2912 17.7897 33.3103 17.9206 33.2368 18.2788C33.1621 18.6429 33.0211 19.1163 32.8063 19.8322L32.0684 22.292C31.6748 23.6039 31.5424 23.9838 31.329 24.2503C31.1146 24.518 30.8349 24.7261 30.5168 24.8546C30.2003 24.9824 29.7983 25.0001 28.4287 25.0001H26.0112ZM21 31C20.4477 31 20 31.4477 20 32C20 32.5523 20.4477 33 21 33C21.5523 33 22 32.5523 22 32C22 31.4477 21.5523 31 21 31ZM29 31C28.4477 31 28 31.4477 28 32C28 32.5523 28.4477 33 29 33C29.5523 33 30 32.5523 30 32C30 31.4477 29.5523 31 29 31Z" fill="#99DCC3"/>
</g>
<rect x="1.5" y="1.5" width="45" height="45" rx="22.5" stroke="#B5E8D5" stroke-width="3"/>
</g>
<defs>
<filter id="filter0_i_139_358" x="0" y="0" width="48" height="50" filterUnits="userSpaceOnUse" color-interpolation-filters="sRGB">
<feFlood flood-opacity="0" result="BackgroundImageFix"/>
<feBlend mode="normal" in="SourceGraphic" in2="BackgroundImageFix" result="shape"/>
<feColorMatrix in="SourceAlpha" type="matrix" values="0 0 0 0 0 0 0 0 0 0 0 0 0 0 0 0 0 0 127 0" result="hardAlpha"/>
<feOffset dy="2"/>
<feGaussianBlur stdDeviation="8"/>
<feComposite in2="hardAlpha" operator="arithmetic" k2="-1" k3="1"/>
<feColorMatrix type="matrix" values="0 0 0 0 0.709804 0 0 0 0 0.909804 0 0 0 0 0.835294 0 0 0 1 0"/>
<feBlend mode="normal" in2="shape" result="effect1_innerShadow_139_358"/>
</filter>
<clipPath id="clip0_139_358">
<rect width="48" height="48" rx="24" fill="white"/>
</clipPath>
</defs>
</svg>
