<svg width="48" height="48" viewBox="0 0 48 48" fill="none" xmlns="http://www.w3.org/2000/svg">
<g filter="url(#filter0_i_139_379)">
<g clip-path="url(#clip0_139_379)">
<rect width="48" height="48" rx="24" fill="#ECFDF5"/>
<line y1="12.25" x2="49" y2="12.25" stroke="#B5E8D5" stroke-opacity="0.5"/>
<line y1="35.75" x2="49" y2="35.75" stroke="#B5E8D5" stroke-opacity="0.5"/>
<line x1="11.75" y1="48" x2="11.75" y2="1" stroke="#B5E8D5" stroke-opacity="0.5"/>
<line x1="36.25" y1="48" x2="36.25" y2="1" stroke="#B5E8D5" stroke-opacity="0.5"/>
<path opacity="0.25" d="M16 26C16 30.5455 19.5 34 24 34C28.5 34 32 30.5455 32 26C32 17.8182 24 14 24 14C24 18 25 24 22 24C20 24 19.5 22 19.5 18.5C19.5 18.5 16 21.4545 16 26Z" fill="#99DCC3"/>
<path fill-rule="evenodd" clip-rule="evenodd" d="M24.4307 13.0975L24 14C24.4307 13.0975 24.4311 13.0977 24.4316 13.0979L24.4326 13.0984L24.4351 13.0996L24.4425 13.1032L24.4657 13.1146C24.4849 13.124 24.5116 13.1374 24.5451 13.1545C24.6123 13.1889 24.7072 13.2386 24.8259 13.3039C25.0632 13.4345 25.3964 13.6278 25.7936 13.8851C26.5864 14.3986 27.6434 15.1731 28.7031 16.2207C30.8201 18.3137 33 21.5543 33 26C33 31.1015 29.0485 35 24 35C18.9515 35 15 31.1015 15 26C15 23.4665 15.9748 21.3994 16.9191 19.9891C17.3931 19.2811 17.8673 18.7267 18.2255 18.3467C18.405 18.1563 18.5565 18.0085 18.6659 17.9061C18.7206 17.8548 18.7649 17.8148 18.7969 17.7863C18.813 17.7721 18.826 17.7608 18.8357 17.7523L18.8478 17.7419L18.852 17.7383L18.8537 17.737L18.8543 17.7364C18.8547 17.7361 18.8549 17.7359 19.5 18.5L18.8549 17.7359C19.1523 17.4848 19.5683 17.4291 19.9213 17.5931C20.2742 17.757 20.5 18.1108 20.5 18.5C20.5 20.2459 20.6314 21.4484 20.9285 22.1911C21.069 22.5423 21.2225 22.7272 21.3595 22.8282C21.4869 22.9223 21.6751 23 22 23C22.1992 23 22.3156 22.9532 22.3955 22.9004C22.4826 22.8427 22.5869 22.7367 22.6927 22.5352C22.9194 22.1035 23.0666 21.4034 23.1269 20.4376C23.1859 19.4947 23.1571 18.4158 23.1102 17.2916C23.1005 17.0572 23.0899 16.8202 23.0793 16.5824C23.0399 15.701 23 14.8093 23 14C23 13.6567 23.1761 13.3374 23.4665 13.1542C23.7569 12.971 24.1209 12.9496 24.4307 13.0975ZM18.626 21.0351C18.611 21.0571 18.596 21.0794 18.5809 21.1018C17.7752 22.3052 17 23.988 17 26C17 29.9894 20.0485 33 24 33C27.9515 33 31 29.9894 31 26C31 22.2638 29.1799 19.5045 27.2969 17.643C26.5004 16.8555 25.702 16.2389 25.0466 15.7903C25.0559 16.0123 25.0659 16.2376 25.0761 16.4659C25.087 16.7103 25.0981 16.958 25.1085 17.2084C25.1554 18.3342 25.1891 19.5053 25.1231 20.5624C25.0584 21.5966 24.8931 22.6465 24.4635 23.4648C24.2412 23.8883 23.9315 24.2823 23.4991 24.5684C23.0594 24.8593 22.5508 25 22 25C21.3249 25 20.7006 24.8277 20.1718 24.4374C19.6525 24.0541 19.306 23.5202 19.0715 22.9339C18.8537 22.3893 18.7132 21.7486 18.626 21.0351Z" fill="#99DCC3"/>
</g>
<rect x="1.5" y="1.5" width="45" height="45" rx="22.5" stroke="#B5E8D5" stroke-width="3"/>
</g>
<defs>
<filter id="filter0_i_139_379" x="0" y="0" width="48" height="50" filterUnits="userSpaceOnUse" color-interpolation-filters="sRGB">
<feFlood flood-opacity="0" result="BackgroundImageFix"/>
<feBlend mode="normal" in="SourceGraphic" in2="BackgroundImageFix" result="shape"/>
<feColorMatrix in="SourceAlpha" type="matrix" values="0 0 0 0 0 0 0 0 0 0 0 0 0 0 0 0 0 0 127 0" result="hardAlpha"/>
<feOffset dy="2"/>
<feGaussianBlur stdDeviation="8"/>
<feComposite in2="hardAlpha" operator="arithmetic" k2="-1" k3="1"/>
<feColorMatrix type="matrix" values="0 0 0 0 0.709804 0 0 0 0 0.909804 0 0 0 0 0.835294 0 0 0 1 0"/>
<feBlend mode="normal" in2="shape" result="effect1_innerShadow_139_379"/>
</filter>
<clipPath id="clip0_139_379">
<rect width="48" height="48" rx="24" fill="white"/>
</clipPath>
</defs>
</svg>
