<svg width="48" height="48" viewBox="0 0 48 48" fill="none" xmlns="http://www.w3.org/2000/svg">
<g filter="url(#filter0_i_556_28)">
<g clip-path="url(#clip0_556_28)">
<rect width="48" height="48" rx="24" fill="#EEF2FF"/>
<line y1="12.25" x2="49" y2="12.25" stroke="#C7D2FE" stroke-opacity="0.5"/>
<line y1="35.75" x2="49" y2="35.75" stroke="#C7D2FE" stroke-opacity="0.5"/>
<line x1="11.75" y1="48" x2="11.75" y2="1" stroke="#C7D2FE" stroke-opacity="0.5"/>
<line x1="36.25" y1="48" x2="36.25" y2="1" stroke="#C7D2FE" stroke-opacity="0.5"/>
<g clip-path="url(#clip1_556_28)">
<path opacity="0.25" d="M15 17.5L14 22.5L14.5 31L17 33.5H28L31 33L33 31.5L33.5 20.5L33 17L30.5 14.5H28.5H21.5L16.5 15L15 17.5Z" fill="#A5B4FC"/>
<path d="M24.0048 18.3848C21.0235 18.3848 18.6188 20.8896 18.6188 23.9951C18.6188 27.1006 21.0235 29.6055 24.0048 29.6055C26.986 29.6055 29.3907 27.1006 29.3907 23.9951C29.3907 20.8896 26.986 18.3848 24.0048 18.3848ZM24.0048 27.6426C22.0782 27.6426 20.5032 26.0068 20.5032 23.9951C20.5032 21.9834 22.0735 20.3477 24.0048 20.3477C25.936 20.3477 27.5063 21.9834 27.5063 23.9951C27.5063 26.0068 25.9313 27.6426 24.0048 27.6426V27.6426ZM30.8673 18.1553C30.8673 18.8828 30.3048 19.4639 29.611 19.4639C28.9126 19.4639 28.3548 18.8779 28.3548 18.1553C28.3548 17.4326 28.9173 16.8467 29.611 16.8467C30.3048 16.8467 30.8673 17.4326 30.8673 18.1553ZM34.4345 19.4834C34.3548 17.7305 33.9704 16.1777 32.7376 14.8984C31.5095 13.6191 30.0188 13.2187 28.336 13.1309C26.6017 13.0283 21.4032 13.0283 19.6688 13.1309C17.9907 13.2139 16.5001 13.6143 15.2673 14.8936C14.0345 16.1729 13.6548 17.7256 13.5704 19.4785C13.472 21.2852 13.472 26.7002 13.5704 28.5068C13.6501 30.2598 14.0345 31.8125 15.2673 33.0918C16.5001 34.3711 17.986 34.7715 19.6688 34.8594C21.4032 34.9619 26.6017 34.9619 28.336 34.8594C30.0188 34.7764 31.5095 34.376 32.7376 33.0918C33.9657 31.8125 34.3501 30.2598 34.4345 28.5068C34.5329 26.7002 34.5329 21.29 34.4345 19.4834V19.4834ZM32.1938 30.4453C31.8282 31.4023 31.1204 32.1396 30.197 32.5254C28.8142 33.0967 25.5329 32.9648 24.0048 32.9648C22.4767 32.9648 19.1907 33.0918 17.8126 32.5254C16.8938 32.1445 16.186 31.4072 15.8157 30.4453C15.2673 29.0049 15.3938 25.5869 15.3938 23.9951C15.3938 22.4033 15.272 18.9805 15.8157 17.5449C16.1813 16.5879 16.8892 15.8506 17.8126 15.4648C19.1954 14.8936 22.4767 15.0254 24.0048 15.0254C25.5329 15.0254 28.8188 14.8984 30.197 15.4648C31.1157 15.8457 31.8235 16.583 32.1938 17.5449C32.7423 18.9853 32.6157 22.4033 32.6157 23.9951C32.6157 25.5869 32.7423 29.0098 32.1938 30.4453Z" fill="#A5B4FC"/>
</g>
</g>
<rect x="1.5" y="1.5" width="45" height="45" rx="22.5" stroke="#C7D2FE" stroke-width="3"/>
</g>
<defs>
<filter id="filter0_i_556_28" x="0" y="0" width="48" height="50" filterUnits="userSpaceOnUse" color-interpolation-filters="sRGB">
<feFlood flood-opacity="0" result="BackgroundImageFix"/>
<feBlend mode="normal" in="SourceGraphic" in2="BackgroundImageFix" result="shape"/>
<feColorMatrix in="SourceAlpha" type="matrix" values="0 0 0 0 0 0 0 0 0 0 0 0 0 0 0 0 0 0 127 0" result="hardAlpha"/>
<feOffset dy="2"/>
<feGaussianBlur stdDeviation="8"/>
<feComposite in2="hardAlpha" operator="arithmetic" k2="-1" k3="1"/>
<feColorMatrix type="matrix" values="0 0 0 0 0.780392 0 0 0 0 0.823529 0 0 0 0 0.996078 0 0 0 1 0"/>
<feBlend mode="normal" in2="shape" result="effect1_innerShadow_556_28"/>
</filter>
<clipPath id="clip0_556_28">
<rect width="48" height="48" rx="24" fill="white"/>
</clipPath>
<clipPath id="clip1_556_28">
<rect width="21" height="25" fill="white" transform="translate(13.5 11.5)"/>
</clipPath>
</defs>
</svg>
