<svg width="48" height="48" viewBox="0 0 48 48" fill="none" xmlns="http://www.w3.org/2000/svg">
<g filter="url(#filter0_i_223_768)">
<g clip-path="url(#clip0_223_768)">
<rect width="48" height="48" rx="24" fill="#EEF2FF"/>
<line y1="12.25" x2="49" y2="12.25" stroke="#C7D2FE" stroke-opacity="0.5"/>
<line y1="35.75" x2="49" y2="35.75" stroke="#C7D2FE" stroke-opacity="0.5"/>
<line x1="11.75" y1="48" x2="11.75" y2="1" stroke="#C7D2FE" stroke-opacity="0.5"/>
<line x1="36.25" y1="48" x2="36.25" y2="1" stroke="#C7D2FE" stroke-opacity="0.5"/>
<path opacity="0.25" fill-rule="evenodd" clip-rule="evenodd" d="M24.566 15.5895C24.1623 15.8369 23.8164 16.1828 23.1246 16.8747L17.9997 22C16.9093 23.0905 16.3641 23.6358 16.0726 24.2239C15.5181 25.343 15.5181 26.6569 16.0727 27.776C16.3641 28.3642 16.9094 28.9094 17.9998 29.9998C19.0904 31.0904 19.6356 31.6357 20.2239 31.9271C21.343 32.4817 22.6569 32.4817 23.7761 31.9271C24.3643 31.6356 24.9095 31.0903 26 29.9997L31.1248 24.8745L31.1248 24.8745C31.8165 24.1827 32.1624 23.8368 32.4098 23.4331C32.6291 23.0753 32.7907 22.6851 32.8886 22.277C32.9991 21.8166 32.9991 21.3275 32.9991 20.3492L32.9991 19.8C32.9991 18.1198 32.9991 17.2798 32.6722 16.638C32.3845 16.0735 31.9256 15.6146 31.3611 15.327C30.7194 15 29.8793 15 28.1991 15L27.6503 15C26.6718 15 26.1826 15 25.7223 15.1105C25.3141 15.2085 24.9239 15.3702 24.566 15.5895ZM26.0024 23.9995C27.107 23.9995 28.0024 23.1041 28.0024 21.9995C28.0024 20.8949 27.107 19.9995 26.0024 19.9995C24.8979 19.9995 24.0024 20.8949 24.0024 21.9995C24.0024 23.1041 24.8979 23.9995 26.0024 23.9995Z" fill="#A5B4FC"/>
<path fill-rule="evenodd" clip-rule="evenodd" d="M27.5363 14L27.6503 14L28.1991 14L28.2404 14C29.0454 14 29.7098 14 30.251 14.0442C30.8131 14.0902 31.3298 14.1887 31.8151 14.436C32.5678 14.8195 33.1797 15.4314 33.5632 16.1841C33.8105 16.6694 33.909 17.1861 33.955 17.7482C33.9992 18.2894 33.9992 18.9537 33.9991 19.7587L33.9991 19.8L33.9991 20.3492L33.9992 20.4632L33.9992 20.4632C33.9994 21.3319 33.9996 21.9332 33.861 22.5104C33.7385 23.0206 33.5365 23.5083 33.2624 23.9556C32.9522 24.4618 32.5269 24.8869 31.9125 25.501L31.8319 25.5816L30.5855 26.8282L30.977 28.7843L31.0029 28.9136C31.1626 29.7086 31.283 30.3085 31.225 30.9029C31.1739 31.4263 31.02 31.9346 30.7723 32.3985C30.491 32.9253 30.058 33.3577 29.4844 33.9307L29.4843 33.9307L29.4843 33.9307L29.391 34.0239L27.7078 35.7071C27.5 35.915 27.2112 36.0208 26.9183 35.9966C26.6253 35.9723 26.3579 35.8204 26.187 35.5812L24.2177 32.8243C22.8194 33.5164 21.178 33.516 19.7798 32.8232C19.0418 32.4575 18.3869 31.802 17.4284 30.8428L17.2927 30.707L17.157 30.5713C16.1978 29.6129 15.5424 28.958 15.1767 28.22C14.4839 26.822 14.4834 25.1807 15.1754 23.7824L12.4192 21.8137C12.18 21.6428 12.0281 21.3753 12.0039 21.0824C11.9797 20.7894 12.0855 20.5007 12.2934 20.2928L13.9769 18.6094L14.0701 18.5161C14.643 17.9425 15.0754 17.5097 15.602 17.2284C16.0659 16.9806 16.574 16.8268 17.0974 16.7756C17.6916 16.7175 18.2915 16.8379 19.0863 16.9974L19.2156 17.0233L21.1708 17.4144L22.4175 16.1676L22.498 16.087C23.1122 15.4725 23.5373 15.0471 24.0435 14.7369C24.4909 14.4627 24.9786 14.2607 25.4888 14.1382C26.0661 13.9996 26.6675 13.9998 27.5363 14ZM17.2926 21.293L19.4713 19.114L18.8233 18.9844C17.8413 18.788 17.5526 18.7407 17.2919 18.7661C17.0302 18.7917 16.7762 18.8686 16.5443 18.9925C16.3132 19.1159 16.0993 19.3155 15.3911 20.0236L14.5423 20.8724L16.3924 22.1939L16.7689 21.8173C16.8921 21.6932 17.0212 21.5641 17.1564 21.429L17.1565 21.4289L17.1566 21.4289L17.1568 21.4286L17.2926 21.293ZM16.9686 24.668C17.1498 24.3023 17.4868 23.9325 18.3994 23.0152L22.2071 19.2071C22.2138 19.2005 22.2203 19.1938 22.2267 19.187L23.8317 17.5818C24.5572 16.8563 24.8092 16.6133 25.0885 16.4422C25.357 16.2777 25.6496 16.1564 25.9557 16.0829C26.2742 16.0065 26.6242 16 27.6503 16L28.1991 16C29.0557 16 29.638 16.0008 30.0881 16.0376C30.5265 16.0734 30.7507 16.1383 30.9071 16.218C31.2835 16.4098 31.5894 16.7157 31.7812 17.0921C31.8608 17.2485 31.9258 17.4727 31.9616 17.9111C31.9984 18.3612 31.9991 18.9435 31.9991 19.8L31.9991 20.3492C31.9991 21.3751 31.9927 21.7251 31.9163 22.0436C31.8428 22.3497 31.7216 22.6423 31.5571 22.9107C31.386 23.19 31.1431 23.442 30.4177 24.1674L25.2929 29.2926C24.1453 30.4403 23.7361 30.8308 23.332 31.0311C22.4927 31.447 21.5072 31.4471 20.6679 31.0311C20.3609 30.879 20.0511 30.6172 19.4169 29.9972L20.707 28.7071C21.0975 28.3166 21.0975 27.6835 20.707 27.2929C20.3164 26.9024 19.6833 26.9024 19.2927 27.2929L18.0027 28.583C17.3827 27.9488 17.1208 27.6389 16.9687 27.332C16.5528 26.4927 16.5528 25.5073 16.9686 24.668ZM27.1283 33.4582L25.8068 31.608L28.8861 28.5283L29.0159 29.1769C29.2125 30.159 29.2599 30.4478 29.2344 30.7085C29.2089 30.9703 29.132 31.2244 29.0081 31.4563C28.8847 31.6874 28.6851 31.9014 27.9768 32.6097L27.1283 33.4582ZM25.0024 21.9995C25.0024 21.4473 25.4502 20.9995 26.0024 20.9995C26.5547 20.9995 27.0024 21.4473 27.0024 21.9995C27.0024 22.5518 26.5547 22.9995 26.0024 22.9995C25.4502 22.9995 25.0024 22.5518 25.0024 21.9995ZM26.0024 18.9995C24.3456 18.9995 23.0024 20.3427 23.0024 21.9995C23.0024 23.6564 24.3456 24.9995 26.0024 24.9995C27.6593 24.9995 29.0024 23.6564 29.0024 21.9995C29.0024 20.3427 27.6593 18.9995 26.0024 18.9995Z" fill="#A5B4FC"/>
</g>
<rect x="1.5" y="1.5" width="45" height="45" rx="22.5" stroke="#C7D2FE" stroke-width="3"/>
</g>
<defs>
<filter id="filter0_i_223_768" x="0" y="0" width="48" height="50" filterUnits="userSpaceOnUse" color-interpolation-filters="sRGB">
<feFlood flood-opacity="0" result="BackgroundImageFix"/>
<feBlend mode="normal" in="SourceGraphic" in2="BackgroundImageFix" result="shape"/>
<feColorMatrix in="SourceAlpha" type="matrix" values="0 0 0 0 0 0 0 0 0 0 0 0 0 0 0 0 0 0 127 0" result="hardAlpha"/>
<feOffset dy="2"/>
<feGaussianBlur stdDeviation="8"/>
<feComposite in2="hardAlpha" operator="arithmetic" k2="-1" k3="1"/>
<feColorMatrix type="matrix" values="0 0 0 0 0.780392 0 0 0 0 0.823529 0 0 0 0 0.996078 0 0 0 1 0"/>
<feBlend mode="normal" in2="shape" result="effect1_innerShadow_223_768"/>
</filter>
<clipPath id="clip0_223_768">
<rect width="48" height="48" rx="24" fill="white"/>
</clipPath>
</defs>
</svg>
