<svg width="48" height="48" viewBox="0 0 48 48" fill="none" xmlns="http://www.w3.org/2000/svg">
<g filter="url(#filter0_i_223_768)">
<g clip-path="url(#clip0_223_768)">
<rect width="48" height="48" rx="24" fill="#EEF2FF"/>
<line y1="12.25" x2="49" y2="12.25" stroke="#C7D2FE" stroke-opacity="0.5"/>
<line y1="35.75" x2="49" y2="35.75" stroke="#C7D2FE" stroke-opacity="0.5"/>
<line x1="11.75" y1="48" x2="11.75" y2="1" stroke="#C7D2FE" stroke-opacity="0.5"/>
<line x1="36.25" y1="48" x2="36.25" y2="1" stroke="#C7D2FE" stroke-opacity="0.5"/>
<g clip-path="url(#clip1_223_768)">
<path opacity="0.25" d="M32.466 19.4782C32.9677 17.6867 33.2185 16.791 32.9857 16.1763C32.7827 15.6404 32.3596 15.2172 31.8237 15.0143C31.209 14.7815 30.3133 15.0323 28.5217 15.5339L18.2958 18.3972C15.4662 19.1895 14.0513 19.5856 13.6414 20.2583C13.2868 20.8401 13.2528 21.5623 13.5511 22.1748C13.896 22.8831 15.2673 23.4105 18.0099 24.4654L20.6725 25.4894C21.1614 25.6775 21.4058 25.7715 21.6114 25.9176C21.7936 26.0472 21.9528 26.2064 22.0823 26.3886C22.2285 26.5942 22.3225 26.8386 22.5105 27.3275L23.5345 29.9899C24.5893 32.7326 25.1168 34.1039 25.825 34.4489C26.4375 34.7472 27.1598 34.7132 27.7415 34.3586C28.4142 33.9486 28.8104 32.5338 29.6027 29.7041L32.466 19.4782Z" fill="#A5B4FC"/>
<path fill-rule="evenodd" clip-rule="evenodd" d="M28.7913 16.497C29.7061 16.2408 30.3257 16.0684 30.7945 15.9824C31.2701 15.8951 31.4242 15.9324 31.4695 15.9496C31.7375 16.051 31.949 16.2626 32.0505 16.5306C32.0676 16.5758 32.105 16.73 32.0177 17.2055C31.9316 17.6744 31.7592 18.2939 31.503 19.2087L28.6397 29.4345C28.2384 30.8677 27.9541 31.8801 27.6899 32.5902C27.5591 32.942 27.4481 33.1775 27.3527 33.3328C27.2717 33.4646 27.2237 33.5024 27.2193 33.5059C26.9293 33.6818 26.5699 33.6987 26.2647 33.5509C26.2601 33.5479 26.2088 33.5149 26.1156 33.3911C26.006 33.2454 25.8734 33.0214 25.71 32.6835C25.3803 32.0014 25.0021 31.0202 24.4678 29.6311L23.4439 26.9686L23.4118 26.8852C23.3263 26.6621 23.2463 26.4535 23.155 26.2593L25.7071 23.7072C26.0976 23.3167 26.0976 22.6835 25.7071 22.293C25.3165 21.9025 24.6834 21.9025 24.2929 22.293L21.7408 24.8451C21.5465 24.7538 21.338 24.6738 21.1149 24.5882L21.0315 24.5562L18.3689 23.5321C16.9798 22.9979 15.9986 22.6196 15.3165 22.2899C14.9786 22.1266 14.7546 21.9939 14.6089 21.8843C14.4852 21.7912 14.4521 21.7399 14.4491 21.7352C14.3013 21.43 14.3182 21.0706 14.4941 20.7806C14.4975 20.7763 14.5353 20.7283 14.6672 20.6472C14.8225 20.5518 15.058 20.4408 15.4098 20.31C16.1199 20.0459 17.1323 19.7615 18.5654 19.3602L28.7913 16.497ZM32.1779 14.0792C31.6085 13.8636 31.0073 13.9099 30.4335 14.0152C29.8634 14.1199 29.1549 14.3183 28.2994 14.5578L28.2521 14.5711L18.0262 17.4343L17.9775 17.4479C16.6039 17.8326 15.5104 18.1387 14.7126 18.4354C13.963 18.7142 13.1905 19.0767 12.7874 19.738C12.2556 20.6106 12.2045 21.694 12.652 22.6128C12.9911 23.3091 13.7261 23.7425 14.4461 24.0906C15.2125 24.461 16.2723 24.8686 17.6037 25.3807L17.6038 25.3807L17.6509 25.3988L20.3135 26.4229C20.8502 26.6293 20.953 26.6767 21.0318 26.7327C21.123 26.7975 21.2025 26.8771 21.2673 26.9682C21.3234 27.047 21.3708 27.1499 21.5772 27.6865L22.6011 30.349L22.6193 30.3962L22.6193 30.3963C23.1313 31.7276 23.5389 32.7875 23.9093 33.5538C24.2574 34.2739 24.6908 35.0089 25.3871 35.348C26.3059 35.7955 27.3893 35.7445 28.2619 35.2126C28.9232 34.8096 29.2857 34.037 29.5645 33.2874C29.8612 32.4896 30.1674 31.3962 30.552 30.0225L30.5656 29.9738L33.429 19.748L33.4422 19.7006C33.6818 18.8451 33.8802 18.1367 33.9848 17.5666C34.0902 16.9927 34.1365 16.3916 33.9209 15.8222C33.6164 15.0183 32.9817 14.3837 32.1779 14.0792Z" fill="#A5B4FC"/>
</g>
</g>
<rect x="1.5" y="1.5" width="45" height="45" rx="22.5" stroke="#C7D2FE" stroke-width="3"/>
</g>
<defs>
<filter id="filter0_i_223_768" x="0" y="0" width="48" height="50" filterUnits="userSpaceOnUse" color-interpolation-filters="sRGB">
<feFlood flood-opacity="0" result="BackgroundImageFix"/>
<feBlend mode="normal" in="SourceGraphic" in2="BackgroundImageFix" result="shape"/>
<feColorMatrix in="SourceAlpha" type="matrix" values="0 0 0 0 0 0 0 0 0 0 0 0 0 0 0 0 0 0 127 0" result="hardAlpha"/>
<feOffset dy="2"/>
<feGaussianBlur stdDeviation="8"/>
<feComposite in2="hardAlpha" operator="arithmetic" k2="-1" k3="1"/>
<feColorMatrix type="matrix" values="0 0 0 0 0.780392 0 0 0 0 0.823529 0 0 0 0 0.996078 0 0 0 1 0"/>
<feBlend mode="normal" in2="shape" result="effect1_innerShadow_223_768"/>
</filter>
<clipPath id="clip0_223_768">
<rect width="48" height="48" rx="24" fill="white"/>
</clipPath>
<clipPath id="clip1_223_768">
<rect width="24" height="24" fill="white" transform="translate(11 13)"/>
</clipPath>
</defs>
</svg>
