<svg width="48" height="48" viewBox="0 0 48 48" fill="none" xmlns="http://www.w3.org/2000/svg">
<g filter="url(#filter0_i_139_249)">
<g clip-path="url(#clip0_139_249)">
<rect width="48" height="48" rx="24" fill="#EEF2FF"/>
<line y1="12.25" x2="49" y2="12.25" stroke="#C7D2FE" stroke-opacity="0.5"/>
<line y1="35.75" x2="49" y2="35.75" stroke="#C7D2FE" stroke-opacity="0.5"/>
<line x1="11.75" y1="48" x2="11.75" y2="1" stroke="#C7D2FE" stroke-opacity="0.5"/>
<line x1="36.25" y1="48" x2="36.25" y2="1" stroke="#C7D2FE" stroke-opacity="0.5"/>
<path opacity="0.25" fill-rule="evenodd" clip-rule="evenodd" d="M17 14C15.3431 14 14 15.3431 14 17C14 18.6569 15.3431 20 17 20C18.6569 20 20 18.6569 20 17C20 15.3431 18.6569 14 17 14ZM31 14C29.3431 14 28 15.3431 28 17C28 18.6569 29.3431 20 31 20C32.6569 20 34 18.6569 34 17C34 15.3431 32.6569 14 31 14ZM14 31C14 29.3431 15.3431 28 17 28C18.6569 28 20 29.3431 20 31C20 32.6569 18.6569 34 17 34C15.3431 34 14 32.6569 14 31ZM31 28C29.3431 28 28 29.3431 28 31C28 32.6569 29.3431 34 31 34C32.6569 34 34 32.6569 34 31C34 29.3431 32.6569 28 31 28Z" fill="#A5B4FC"/>
<path fill-rule="evenodd" clip-rule="evenodd" d="M13 17C13 14.7909 14.7909 13 17 13C18.8638 13 20.4299 14.2748 20.874 16H24C24.5523 16 25 16.4477 25 17C25 17.5523 24.5523 18 24 18H20.874C20.4299 19.7252 18.8638 21 17 21C14.7909 21 13 19.2091 13 17ZM17 15C18.1046 15 19 15.8954 19 17C19 18.1046 18.1046 19 17 19C15.8954 19 15 18.1046 15 17C15 15.8954 15.8954 15 17 15ZM18 24C18 23.4477 17.5523 23 17 23C16.4477 23 16 23.4477 16 24L16 27.126C14.2748 27.5701 13 29.1362 13 31C13 33.2091 14.7909 35 17 35C19.2091 35 21 33.2091 21 31C21 29.1362 19.7252 27.5701 18 27.126V24ZM32 20.874C33.7252 20.4299 35 18.8638 35 17C35 14.7909 33.2091 13 31 13C28.7909 13 27 14.7909 27 17C27 18.8638 28.2748 20.4299 30 20.874V24C30 24.5523 30.4477 25 31 25C31.5523 25 32 24.5523 32 24V20.874ZM31 19C29.8954 19 29 18.1046 29 17C29 15.8954 29.8954 15 31 15C32.1046 15 33 15.8954 33 17C33 18.1046 32.1046 19 31 19ZM24 30C23.4477 30 23 30.4477 23 31C23 31.5523 23.4477 32 24 32H27.126C27.5701 33.7252 29.1362 35 31 35C33.2091 35 35 33.2091 35 31C35 28.7909 33.2091 27 31 27C29.1362 27 27.5701 28.2748 27.126 30H24ZM29 31C29 32.1046 29.8954 33 31 33C32.1046 33 33 32.1046 33 31C33 29.8954 32.1046 29 31 29C29.8954 29 29 29.8954 29 31ZM17 29C15.8954 29 15 29.8954 15 31C15 32.1046 15.8954 33 17 33C18.1046 33 19 32.1046 19 31C19 29.8954 18.1046 29 17 29Z" fill="#A5B4FC"/>
</g>
<rect x="1.5" y="1.5" width="45" height="45" rx="22.5" stroke="#C7D2FE" stroke-width="3"/>
</g>
<defs>
<filter id="filter0_i_139_249" x="0" y="0" width="48" height="50" filterUnits="userSpaceOnUse" color-interpolation-filters="sRGB">
<feFlood flood-opacity="0" result="BackgroundImageFix"/>
<feBlend mode="normal" in="SourceGraphic" in2="BackgroundImageFix" result="shape"/>
<feColorMatrix in="SourceAlpha" type="matrix" values="0 0 0 0 0 0 0 0 0 0 0 0 0 0 0 0 0 0 127 0" result="hardAlpha"/>
<feOffset dy="2"/>
<feGaussianBlur stdDeviation="8"/>
<feComposite in2="hardAlpha" operator="arithmetic" k2="-1" k3="1"/>
<feColorMatrix type="matrix" values="0 0 0 0 0.780392 0 0 0 0 0.823529 0 0 0 0 0.996078 0 0 0 1 0"/>
<feBlend mode="normal" in2="shape" result="effect1_innerShadow_139_249"/>
</filter>
<clipPath id="clip0_139_249">
<rect width="48" height="48" rx="24" fill="white"/>
</clipPath>
</defs>
</svg>
