<svg width="48" height="48" viewBox="0 0 48 48" fill="none" xmlns="http://www.w3.org/2000/svg">
<g filter="url(#filter0_i_556_80)">
<g clip-path="url(#clip0_556_80)">
<rect width="48" height="48" rx="24" fill="#EEF2FF"/>
<line y1="12.25" x2="49" y2="12.25" stroke="#C7D2FE" stroke-opacity="0.5"/>
<line y1="35.75" x2="49" y2="35.75" stroke="#C7D2FE" stroke-opacity="0.5"/>
<line x1="11.75" y1="48" x2="11.75" y2="1" stroke="#C7D2FE" stroke-opacity="0.5"/>
<line x1="36.25" y1="48" x2="36.25" y2="1" stroke="#C7D2FE" stroke-opacity="0.5"/>
<path opacity="0.25" d="M14 23.7009C14 18.1268 18.3758 14 24.0222 14C29.669 14 34 18.1268 34 23.7009C34 30.763 27.3004 34.7188 21.1194 33.0175C20.7577 32.9191 20.7302 32.9933 18.5968 33.9329C18.4767 33.9853 18.3456 34.0076 18.2149 33.9977C18.0842 33.9879 17.958 33.9462 17.8471 33.8763C17.7362 33.8064 17.6441 33.7105 17.5789 33.5969C17.5136 33.4832 17.4771 33.3553 17.4726 33.2244C17.4153 31.3545 17.4847 31.1791 17.148 30.8763C15.198 29.1359 14 26.6164 14 23.7009Z" fill="#A5B5FC"/>
<path d="M14 23.7009C14 18.1268 18.3758 14 24.0222 14C29.669 14 34 18.1268 34 23.7009C34 30.763 27.3004 34.7188 21.1194 33.0175C20.7577 32.9191 20.7302 32.9933 18.5968 33.9329C18.4767 33.9853 18.3456 34.0076 18.2149 33.9977C18.0842 33.9879 17.958 33.9462 17.8471 33.8763C17.7362 33.8064 17.6441 33.7105 17.5789 33.5969C17.5136 33.4832 17.4771 33.3553 17.4726 33.2244C17.4153 31.3545 17.4847 31.1791 17.148 30.8763C15.198 29.1359 14 26.6164 14 23.7009Z" stroke="#A5B5FC" stroke-width="2"/>
<path d="M27.0258 25.949L29.9232 21.6715C30.203 21.2614 29.6592 20.7981 29.2449 21.0934L26.1327 23.2912C26.0297 23.3633 25.9044 23.4022 25.7755 23.4022C25.6467 23.4022 25.5214 23.3633 25.4183 23.2912L23.1139 21.6826C22.9502 21.5687 22.7631 21.4874 22.5642 21.4441C22.3653 21.4007 22.1589 21.3961 21.958 21.4306C21.7571 21.4651 21.566 21.538 21.3967 21.6446C21.2274 21.7512 21.0836 21.8893 20.9742 22.0502L18.0768 26.3276C17.797 26.7373 18.3408 27.2011 18.7559 26.9076L21.8665 24.7076C21.9695 24.6355 22.0948 24.5966 22.2237 24.5966C22.3525 24.5966 22.4778 24.6355 22.5809 24.7076L24.8861 26.3165C25.0498 26.4305 25.2369 26.5116 25.4358 26.555C25.6347 26.5983 25.8411 26.6029 26.042 26.5684C26.2429 26.5339 26.4339 26.461 26.6032 26.3545C26.7725 26.2479 26.9164 26.1098 27.0258 25.949Z" fill="#A5B4FC"/>
</g>
<rect x="1.5" y="1.5" width="45" height="45" rx="22.5" stroke="#C7D2FE" stroke-width="3"/>
</g>
<defs>
<filter id="filter0_i_556_80" x="0" y="0" width="48" height="50" filterUnits="userSpaceOnUse" color-interpolation-filters="sRGB">
<feFlood flood-opacity="0" result="BackgroundImageFix"/>
<feBlend mode="normal" in="SourceGraphic" in2="BackgroundImageFix" result="shape"/>
<feColorMatrix in="SourceAlpha" type="matrix" values="0 0 0 0 0 0 0 0 0 0 0 0 0 0 0 0 0 0 127 0" result="hardAlpha"/>
<feOffset dy="2"/>
<feGaussianBlur stdDeviation="8"/>
<feComposite in2="hardAlpha" operator="arithmetic" k2="-1" k3="1"/>
<feColorMatrix type="matrix" values="0 0 0 0 0.780392 0 0 0 0 0.823529 0 0 0 0 0.996078 0 0 0 1 0"/>
<feBlend mode="normal" in2="shape" result="effect1_innerShadow_556_80"/>
</filter>
<clipPath id="clip0_556_80">
<rect width="48" height="48" rx="24" fill="white"/>
</clipPath>
</defs>
</svg>
