<svg width="48" height="48" viewBox="0 0 48 48" fill="none" xmlns="http://www.w3.org/2000/svg">
<g filter="url(#filter0_i_139_281)">
<g clip-path="url(#clip0_139_281)">
<rect width="48" height="48" rx="24" fill="#EEF2FF"/>
<line y1="12.25" x2="49" y2="12.25" stroke="#C7D2FE" stroke-opacity="0.5"/>
<line y1="35.75" x2="49" y2="35.75" stroke="#C7D2FE" stroke-opacity="0.5"/>
<line x1="11.75" y1="48" x2="11.75" y2="1" stroke="#C7D2FE" stroke-opacity="0.5"/>
<line x1="36.25" y1="48" x2="36.25" y2="1" stroke="#C7D2FE" stroke-opacity="0.5"/>
<path opacity="0.25" fill-rule="evenodd" clip-rule="evenodd" d="M14.327 15.638C14 16.2798 14 17.1198 14 18.8V29.2C14 30.8802 14 31.7202 14.327 32.362C14.6146 32.9265 15.0735 33.3854 15.638 33.673C16.2798 34 17.1198 34 18.8 34H24H29.5C30.8978 34 31.5967 34 32.1481 33.7716C32.8831 33.4672 33.4672 32.8831 33.7716 32.1481C34 31.5967 34 30.8978 34 29.5V29C34 28.07 34 27.605 33.8978 27.2235C33.6204 26.1883 32.8117 25.3796 31.7765 25.1022C31.395 25 30.93 25 30 25L24 32V18.8C24 17.1198 24 16.2798 23.673 15.638C23.3854 15.0735 22.9265 14.6146 22.362 14.327C21.7202 14 20.8802 14 19.2 14H18.8C17.1198 14 16.2798 14 15.638 14.327C15.0735 14.6146 14.6146 15.0735 14.327 15.638Z" fill="#A5B4FC"/>
<path fill-rule="evenodd" clip-rule="evenodd" d="M18.8 13L18.7587 13C17.9537 13 17.2894 13 16.7482 13.0442C16.1861 13.0901 15.6694 13.1887 15.184 13.436C14.4314 13.8195 13.8195 14.4314 13.436 15.184C13.1887 15.6694 13.0901 16.1861 13.0442 16.7482C13 17.2894 13 17.9537 13 18.7587L13 18.8V29.2L13 29.2413C13 30.0463 13 30.7106 13.0442 31.2518C13.0901 31.8139 13.1887 32.3306 13.436 32.816C13.8195 33.5686 14.4314 34.1805 15.184 34.564C15.6694 34.8113 16.1861 34.9099 16.7482 34.9558C17.2894 35 17.9537 35 18.7587 35H18.8H20H24H29.5H29.5343H29.5344C30.2041 35 30.757 35 31.2095 34.9691C31.6788 34.9371 32.1129 34.8686 32.5307 34.6955C33.5108 34.2895 34.2895 33.5108 34.6955 32.5307C34.8686 32.1129 34.9371 31.6788 34.9691 31.2095C35 30.757 35 30.2041 35 29.5344V29.5343V29.5V29L35 28.8624C35.0005 28.067 35.0008 27.4764 34.8637 26.9647C34.4938 25.5844 33.4156 24.5062 32.0353 24.1363C31.9689 24.1185 31.9011 24.103 31.8318 24.0896L31.9115 23.993L31.9971 23.8896C32.4977 23.2842 32.8708 22.8331 33.0918 22.3464C33.6241 21.1741 33.5596 19.8172 32.9185 18.7007C32.6523 18.2371 32.2381 17.8234 31.6823 17.2683L31.5873 17.1734L31.4829 17.0689L31.4829 17.0689C30.8791 16.4644 30.4305 16.0153 29.9319 15.7403C28.729 15.0766 27.2698 15.0767 26.067 15.7404C25.6941 15.9462 25.3492 16.2493 24.9464 16.6419C24.8968 16.1208 24.7957 15.6386 24.564 15.184C24.1805 14.4314 23.5686 13.8195 22.816 13.436C22.3306 13.1887 21.8139 13.0901 21.2518 13.0442C20.7106 13 20.0463 13 19.2413 13L19.2 13H18.8ZM23 19.0004C23 18.9999 23 18.9994 23 18.9989V18.8C23 17.9434 22.9992 17.3611 22.9624 16.911C22.9266 16.4726 22.8617 16.2484 22.782 16.092C22.5903 15.7157 22.2843 15.4097 21.908 15.218C21.7516 15.1383 21.5274 15.0734 21.089 15.0376C20.6389 15.0008 20.0566 15 19.2 15H18.8C17.9434 15 17.3611 15.0008 16.911 15.0376C16.4726 15.0734 16.2484 15.1383 16.092 15.218C15.7157 15.4097 15.4097 15.7157 15.218 16.092C15.1383 16.2484 15.0734 16.4726 15.0376 16.911C15.0008 17.3611 15 17.9434 15 18.8V29.2C15 30.0566 15.0008 30.6389 15.0376 31.089C15.0734 31.5274 15.1383 31.7516 15.218 31.908C15.4097 32.2843 15.7157 32.5903 16.092 32.782C16.2484 32.8617 16.4726 32.9266 16.911 32.9624C17.3611 32.9992 17.9434 33 18.8 33H20H23V32.0069C23 32.0019 23 31.997 23 31.992V19.0004ZM25 29.2193V19.4138L25.8259 18.5879C26.5813 17.8324 26.8167 17.611 27.0333 17.4915C27.6347 17.1596 28.3643 17.1596 28.9657 17.4914C29.1823 17.6109 29.4177 17.8323 30.1732 18.5877C30.8661 19.2805 31.0682 19.4948 31.1841 19.6966C31.5047 20.2549 31.5369 20.9333 31.2707 21.5195C31.1745 21.7313 30.9937 21.9638 30.3696 22.7193L25 29.2193ZM25 32.3596V33H29.5C30.2126 33 30.697 32.9995 31.0734 32.9738C31.4409 32.9487 31.6319 32.9031 31.7654 32.8478C32.2554 32.6448 32.6448 32.2554 32.8478 31.7654C32.9031 31.6319 32.9487 31.4409 32.9738 31.0734C32.9995 30.697 33 30.2126 33 29.5V29C33 28.0056 32.9914 27.7046 32.9319 27.4824C32.7469 26.7922 32.2078 26.2531 31.5176 26.0681C31.3155 26.014 31.0482 26.002 30.2534 26.0002L25 32.3596ZM20 29C20 29.5523 19.5523 30 19 30C18.4477 30 18 29.5523 18 29C18 28.4477 18.4477 28 19 28C19.5523 28 20 28.4477 20 29Z" fill="#A5B4FC"/>
</g>
<rect x="1.5" y="1.5" width="45" height="45" rx="22.5" stroke="#C7D2FE" stroke-width="3"/>
</g>
<defs>
<filter id="filter0_i_139_281" x="0" y="0" width="48" height="50" filterUnits="userSpaceOnUse" color-interpolation-filters="sRGB">
<feFlood flood-opacity="0" result="BackgroundImageFix"/>
<feBlend mode="normal" in="SourceGraphic" in2="BackgroundImageFix" result="shape"/>
<feColorMatrix in="SourceAlpha" type="matrix" values="0 0 0 0 0 0 0 0 0 0 0 0 0 0 0 0 0 0 127 0" result="hardAlpha"/>
<feOffset dy="2"/>
<feGaussianBlur stdDeviation="8"/>
<feComposite in2="hardAlpha" operator="arithmetic" k2="-1" k3="1"/>
<feColorMatrix type="matrix" values="0 0 0 0 0.780392 0 0 0 0 0.823529 0 0 0 0 0.996078 0 0 0 1 0"/>
<feBlend mode="normal" in2="shape" result="effect1_innerShadow_139_281"/>
</filter>
<clipPath id="clip0_139_281">
<rect width="48" height="48" rx="24" fill="white"/>
</clipPath>
</defs>
</svg>
