<svg width="48" height="48" viewBox="0 0 48 48" fill="none" xmlns="http://www.w3.org/2000/svg">
<g filter="url(#filter0_i_223_768)">
<g clip-path="url(#clip0_223_768)">
<rect width="48" height="48" rx="24" fill="#EEF2FF"/>
<line y1="12.25" x2="49" y2="12.25" stroke="#C7D2FE" stroke-opacity="0.5"/>
<line y1="35.75" x2="49" y2="35.75" stroke="#C7D2FE" stroke-opacity="0.5"/>
<line x1="11.75" y1="48" x2="11.75" y2="1" stroke="#C7D2FE" stroke-opacity="0.5"/>
<line x1="36.25" y1="48" x2="36.25" y2="1" stroke="#C7D2FE" stroke-opacity="0.5"/>
<path opacity="0.25" d="M32 26V19.4999C32 17.0147 29.9853 15 27.5001 15C27.5001 16.1046 26.6047 17 25.5001 17H22.5001C21.3955 17 20.5001 16.1046 20.5001 15C18.0148 15 16 17.0148 16 19.5001V26C16 28.8003 16 30.2004 16.545 31.27C17.0243 32.2108 17.7892 32.9757 18.73 33.455C19.7996 34 21.1997 34 24 34C26.8003 34 28.2004 34 29.27 33.455C30.2108 32.9757 30.9757 32.2108 31.455 31.27C32 30.2004 32 28.8003 32 26Z" fill="#A5B4FC"/>
<path fill-rule="evenodd" clip-rule="evenodd" d="M19.2697 16.2447C17.941 16.765 17 18.0583 17 19.5714V26C17 27.4166 17.0008 28.419 17.0648 29.2026C17.1279 29.9745 17.2473 30.4457 17.436 30.816C17.8195 31.5686 18.4314 32.1805 19.184 32.564C19.5543 32.7527 20.0255 32.8721 20.7974 32.9352C21.581 32.9992 22.5834 33 24 33C25.4166 33 26.419 32.9992 27.2026 32.9352C27.9745 32.8721 28.4457 32.7527 28.816 32.564C29.5686 32.1805 30.1805 31.5686 30.564 30.816C30.7527 30.4457 30.8721 29.9745 30.9352 29.2026C30.9992 28.419 31 27.4166 31 26V19.5714C31 18.0584 30.0591 16.7651 28.7305 16.2447C28.2576 17.2803 27.2129 18 26.0001 18H22.0001C20.7873 18 19.7425 17.2803 19.2697 16.2447ZM28.8906 14.1938C31.2584 14.836 33 17.0003 33 19.5714V26V26.0438V26.0439C33 27.4069 33 28.4909 32.9286 29.3654C32.8554 30.261 32.7023 31.0247 32.346 31.7239C31.7708 32.8529 30.8529 33.7708 29.7239 34.346C29.0247 34.7023 28.261 34.8554 27.3654 34.9286C26.4909 35 25.4069 35 24.0439 35H24.0438H24H23.9562H23.9561C22.5931 35 21.5091 35 20.6346 34.9286C19.739 34.8554 18.9753 34.7023 18.2761 34.346C17.1471 33.7708 16.2292 32.8529 15.654 31.7239C15.2977 31.0247 15.1446 30.261 15.0714 29.3654C15 28.4908 15 27.4068 15 26.0438L15 26V19.5714C15 17.0002 16.7417 14.8358 19.1097 14.1937C19.4619 12.9285 20.6226 12 22.0001 12H26.0001C27.3777 12 28.5384 12.9285 28.8906 14.1938ZM21.0001 15C21.0001 14.4477 21.4478 14 22.0001 14H26.0001C26.5524 14 27.0001 14.4477 27.0001 15C27.0001 15.5523 26.5524 16 26.0001 16H22.0001C21.4478 16 21.0001 15.5523 21.0001 15ZM20 23C20 22.4477 20.4477 22 21 22H27C27.5523 22 28 22.4477 28 23C28 23.5523 27.5523 24 27 24H21C20.4477 24 20 23.5523 20 23ZM21 26C20.4477 26 20 26.4477 20 27C20 27.5523 20.4477 28 21 28H25C25.5523 28 26 27.5523 26 27C26 26.4477 25.5523 26 25 26H21Z" fill="#A5B4FC"/>
</g>
<rect x="1.5" y="1.5" width="45" height="45" rx="22.5" stroke="#C7D2FE" stroke-width="3"/>
</g>
<defs>
<filter id="filter0_i_223_768" x="0" y="0" width="48" height="50" filterUnits="userSpaceOnUse" color-interpolation-filters="sRGB">
<feFlood flood-opacity="0" result="BackgroundImageFix"/>
<feBlend mode="normal" in="SourceGraphic" in2="BackgroundImageFix" result="shape"/>
<feColorMatrix in="SourceAlpha" type="matrix" values="0 0 0 0 0 0 0 0 0 0 0 0 0 0 0 0 0 0 127 0" result="hardAlpha"/>
<feOffset dy="2"/>
<feGaussianBlur stdDeviation="8"/>
<feComposite in2="hardAlpha" operator="arithmetic" k2="-1" k3="1"/>
<feColorMatrix type="matrix" values="0 0 0 0 0.780392 0 0 0 0 0.823529 0 0 0 0 0.996078 0 0 0 1 0"/>
<feBlend mode="normal" in2="shape" result="effect1_innerShadow_223_768"/>
</filter>
<clipPath id="clip0_223_768">
<rect width="48" height="48" rx="24" fill="white"/>
</clipPath>
</defs>
</svg>
