<svg width="48" height="48" viewBox="0 0 48 48" fill="none" xmlns="http://www.w3.org/2000/svg">
<g filter="url(#filter0_i_139_307)">
<g clip-path="url(#clip0_139_307)">
<rect width="48" height="48" rx="24" fill="#EEF2FF"/>
<line y1="12.25" x2="49" y2="12.25" stroke="#C7D2FE" stroke-opacity="0.5"/>
<line y1="35.75" x2="49" y2="35.75" stroke="#C7D2FE" stroke-opacity="0.5"/>
<line x1="11.75" y1="48" x2="11.75" y2="1" stroke="#C7D2FE" stroke-opacity="0.5"/>
<line x1="36.25" y1="48" x2="36.25" y2="1" stroke="#C7D2FE" stroke-opacity="0.5"/>
<path opacity="0.25" fill-rule="evenodd" clip-rule="evenodd" d="M15.1022 16.2235C15 16.605 15 17.07 15 18C15 18.93 15 19.395 15.1022 19.7765C15.3796 20.8117 16.1883 21.6204 17.2235 21.8978C17.605 22 18.07 22 19 22H29C29.93 22 30.395 22 30.7765 21.8978C31.8117 21.6204 32.6204 20.8117 32.8978 19.7765C33 19.395 33 18.93 33 18C33 17.07 33 16.605 32.8978 16.2235C32.6204 15.1883 31.8117 14.3796 30.7765 14.1022C30.395 14 29.93 14 29 14H19C18.07 14 17.605 14 17.2235 14.1022C16.1883 14.3796 15.3796 15.1883 15.1022 16.2235ZM15.1022 27.2235C15 27.605 15 28.07 15 29C15 29.93 15 30.395 15.1022 30.7765C15.3796 31.8117 16.1883 32.6204 17.2235 32.8978C17.605 33 18.07 33 19 33H29C29.93 33 30.395 33 30.7765 32.8978C31.8117 32.6204 32.6204 31.8117 32.8978 30.7765C33 30.395 33 29.93 33 29C33 28.07 33 27.605 32.8978 27.2235C32.6204 26.1883 31.8117 25.3796 30.7765 25.1022C30.395 25 29.93 25 29 25H19C18.07 25 17.605 25 17.2235 25.1022C16.1883 25.3796 15.3796 26.1883 15.1022 27.2235Z" fill="#A5B4FC"/>
<path fill-rule="evenodd" clip-rule="evenodd" d="M19 13L18.8624 12.9999C18.067 12.9995 17.4764 12.9992 16.9647 13.1363C15.5844 13.5062 14.5062 14.5844 14.1363 15.9647C13.9992 16.4764 13.9995 17.067 14 17.8624L14 18L14 18.1376C13.9995 18.933 13.9992 19.5236 14.1363 20.0353C14.5062 21.4156 15.5844 22.4938 16.9647 22.8637C17.4764 23.0008 18.067 23.0005 18.8624 23H18.8624L19 23H29L29.1376 23H29.1376C29.933 23.0005 30.5236 23.0008 31.0353 22.8637C32.4156 22.4938 33.4938 21.4156 33.8637 20.0353C34.0008 19.5236 34.0005 18.933 34.0001 18.1376L34 18L34.0001 17.8624C34.0005 17.067 34.0008 16.4764 33.8637 15.9647C33.4938 14.5844 32.4156 13.5062 31.0353 13.1363C30.5236 12.9992 29.933 12.9995 29.1376 12.9999L29 13H19ZM17.4824 15.0681C17.7046 15.0086 18.0057 15 19 15H29C29.9944 15 30.2954 15.0086 30.5176 15.0681C31.2078 15.2531 31.7469 15.7922 31.9319 16.4824C31.9914 16.7046 32 17.0056 32 18C32 18.9944 31.9914 19.2954 31.9319 19.5176C31.7469 20.2078 31.2078 20.7469 30.5176 20.9318C30.2954 20.9914 29.9944 21 29 21H19C18.0057 21 17.7046 20.9914 17.4824 20.9318C16.7922 20.7469 16.2531 20.2078 16.0682 19.5176C16.0086 19.2954 16 18.9944 16 18C16 17.0056 16.0086 16.7046 16.0682 16.4824C16.2531 15.7922 16.7922 15.2531 17.4824 15.0681ZM19 24L18.8624 23.9999H18.8624C18.067 23.9995 17.4764 23.9992 16.9647 24.1363C15.5844 24.5062 14.5062 25.5844 14.1363 26.9647C13.9992 27.4764 13.9995 28.067 14 28.8624L14 29L14 29.1376C13.9995 29.933 13.9992 30.5236 14.1363 31.0353C14.5062 32.4156 15.5844 33.4938 16.9647 33.8637C17.4764 34.0008 18.067 34.0005 18.8624 34L19 34H29L29.1376 34C29.933 34.0005 30.5236 34.0008 31.0353 33.8637C32.4156 33.4938 33.4938 32.4156 33.8637 31.0353C34.0008 30.5236 34.0005 29.933 34.0001 29.1376L34 29L34.0001 28.8624C34.0005 28.067 34.0008 27.4764 33.8637 26.9647C33.4938 25.5844 32.4156 24.5062 31.0353 24.1363C30.5236 23.9992 29.933 23.9995 29.1376 23.9999H29.1376L29 24H19ZM17.4824 26.0681C17.7046 26.0086 18.0057 26 19 26H29C29.9944 26 30.2954 26.0086 30.5176 26.0681C31.2078 26.2531 31.7469 26.7922 31.9319 27.4824C31.9914 27.7046 32 28.0056 32 29C32 29.9944 31.9914 30.2954 31.9319 30.5176C31.7469 31.2078 31.2078 31.7469 30.5176 31.9319C30.2954 31.9914 29.9944 32 29 32H19C18.0057 32 17.7046 31.9914 17.4824 31.9319C16.7922 31.7469 16.2531 31.2078 16.0682 30.5176C16.0086 30.2954 16 29.9944 16 29C16 28.0056 16.0086 27.7046 16.0682 27.4824C16.2531 26.7922 16.7922 26.2531 17.4824 26.0681ZM30 18C30 18.5523 29.5523 19 29 19C28.4477 19 28 18.5523 28 18C28 17.4477 28.4477 17 29 17C29.5523 17 30 17.4477 30 18ZM29 30C29.5523 30 30 29.5523 30 29C30 28.4477 29.5523 28 29 28C28.4477 28 28 28.4477 28 29C28 29.5523 28.4477 30 29 30Z" fill="#A5B4FC"/>
</g>
<rect x="1.5" y="1.5" width="45" height="45" rx="22.5" stroke="#C7D2FE" stroke-width="3"/>
</g>
<defs>
<filter id="filter0_i_139_307" x="0" y="0" width="48" height="50" filterUnits="userSpaceOnUse" color-interpolation-filters="sRGB">
<feFlood flood-opacity="0" result="BackgroundImageFix"/>
<feBlend mode="normal" in="SourceGraphic" in2="BackgroundImageFix" result="shape"/>
<feColorMatrix in="SourceAlpha" type="matrix" values="0 0 0 0 0 0 0 0 0 0 0 0 0 0 0 0 0 0 127 0" result="hardAlpha"/>
<feOffset dy="2"/>
<feGaussianBlur stdDeviation="8"/>
<feComposite in2="hardAlpha" operator="arithmetic" k2="-1" k3="1"/>
<feColorMatrix type="matrix" values="0 0 0 0 0.780392 0 0 0 0 0.823529 0 0 0 0 0.996078 0 0 0 1 0"/>
<feBlend mode="normal" in2="shape" result="effect1_innerShadow_139_307"/>
</filter>
<clipPath id="clip0_139_307">
<rect width="48" height="48" rx="24" fill="white"/>
</clipPath>
</defs>
</svg>
