<svg width="48" height="48" viewBox="0 0 48 48" fill="none" xmlns="http://www.w3.org/2000/svg">
<g filter="url(#filter0_i_223_768)">
<g clip-path="url(#clip0_223_768)">
<rect width="48" height="48" rx="24" fill="#EEF2FF"/>
<line y1="12.25" x2="49" y2="12.25" stroke="#C7D2FE" stroke-opacity="0.5"/>
<line y1="35.75" x2="49" y2="35.75" stroke="#C7D2FE" stroke-opacity="0.5"/>
<line x1="11.75" y1="48" x2="11.75" y2="1" stroke="#C7D2FE" stroke-opacity="0.5"/>
<line x1="36.25" y1="48" x2="36.25" y2="1" stroke="#C7D2FE" stroke-opacity="0.5"/>
<rect opacity="0.25" x="14" y="14" width="20" height="20" rx="10" fill="#A5B4FC"/>
<path fill-rule="evenodd" clip-rule="evenodd" d="M24 13C17.9249 13 13 17.9249 13 24C13 30.0751 17.9249 35 24 35C30.0751 35 35 30.0751 35 24C35 17.9249 30.0751 13 24 13ZM15 24C15 19.0294 19.0294 15 24 15C28.9706 15 33 19.0294 33 24C33 28.9706 28.9706 33 24 33C19.0294 33 15 28.9706 15 24ZM25 20C25 19.4477 24.5523 19 24 19C23.4477 19 23 19.4477 23 20V24C23 24.3344 23.1671 24.6466 23.4453 24.8321L26.4453 26.8321C26.9048 27.1384 27.5257 27.0142 27.8321 26.5547C28.1384 26.0952 28.0142 25.4743 27.5547 25.1679L25 23.4648V20Z" fill="#A5B4FC"/>
</g>
<rect x="1.5" y="1.5" width="45" height="45" rx="22.5" stroke="#C7D2FE" stroke-width="3"/>
</g>
<defs>
<filter id="filter0_i_223_768" x="0" y="0" width="48" height="50" filterUnits="userSpaceOnUse" color-interpolation-filters="sRGB">
<feFlood flood-opacity="0" result="BackgroundImageFix"/>
<feBlend mode="normal" in="SourceGraphic" in2="BackgroundImageFix" result="shape"/>
<feColorMatrix in="SourceAlpha" type="matrix" values="0 0 0 0 0 0 0 0 0 0 0 0 0 0 0 0 0 0 127 0" result="hardAlpha"/>
<feOffset dy="2"/>
<feGaussianBlur stdDeviation="8"/>
<feComposite in2="hardAlpha" operator="arithmetic" k2="-1" k3="1"/>
<feColorMatrix type="matrix" values="0 0 0 0 0.780392 0 0 0 0 0.823529 0 0 0 0 0.996078 0 0 0 1 0"/>
<feBlend mode="normal" in2="shape" result="effect1_innerShadow_223_768"/>
</filter>
<clipPath id="clip0_223_768">
<rect width="48" height="48" rx="24" fill="white"/>
</clipPath>
</defs>
</svg>
