<svg width="48" height="48" viewBox="0 0 48 48" fill="none" xmlns="http://www.w3.org/2000/svg">
<g filter="url(#filter0_i_139_155)">
<g clip-path="url(#clip0_139_155)">
<rect width="48" height="48" rx="24" fill="#FEF2F2"/>
<line y1="12.25" x2="49" y2="12.25" stroke="#FECACA" stroke-opacity="0.5"/>
<line y1="35.75" x2="49" y2="35.75" stroke="#FECACA" stroke-opacity="0.5"/>
<line x1="11.75" y1="48" x2="11.75" y2="1" stroke="#FECACA" stroke-opacity="0.5"/>
<line x1="36.25" y1="48" x2="36.25" y2="1" stroke="#FECACA" stroke-opacity="0.5"/>
<path opacity="0.25" fill-rule="evenodd" clip-rule="evenodd" d="M27.6 18H14V27.6C14 29.8402 14 30.9603 14.436 31.816C14.8195 32.5686 15.4314 33.1805 16.184 33.564C17.0397 34 18.1598 34 20.4 34H27.6C29.8402 34 30.9603 34 31.816 33.564C32.5686 33.1805 33.1805 32.5686 33.564 31.816C33.8979 31.1606 33.9761 30.3501 33.9944 29H33C31.3431 29 30 27.6569 30 26C30 24.3431 31.3431 23 33 23H33.9944C33.9761 21.6499 33.8979 20.8394 33.564 20.184C33.1805 19.4314 32.5686 18.8195 31.816 18.436C30.9603 18 29.8402 18 27.6 18Z" fill="#FCA5A5"/>
<path fill-rule="evenodd" clip-rule="evenodd" d="M24.8238 15.1153C24.4516 15.009 24.0313 14.9999 22.8 14.9999H16C15.4477 14.9999 15 15.4477 15 15.9999C15 16.5522 15.4477 16.9999 16 16.9999H24H26.9999C26.3519 16.138 26.1045 15.8309 25.8134 15.6101C25.5171 15.3852 25.1815 15.2174 24.8238 15.1153ZM16 12.9999C14.3431 12.9999 13 14.3431 13 15.9999V17.9999V27.5999L13 27.6427C13 28.7265 13 29.6007 13.0578 30.3086C13.1174 31.0374 13.2432 31.6776 13.545 32.2699C14.0243 33.2107 14.7892 33.9756 15.73 34.455C16.3223 34.7568 16.9625 34.8826 17.6914 34.9421C18.3992 35 19.2733 34.9999 20.3571 34.9999H20.3572H20.4H27.6H27.6428H27.6429C28.7267 34.9999 29.6008 35 30.3086 34.9421C31.0375 34.8826 31.6777 34.7568 32.27 34.455C33.2108 33.9756 33.9757 33.2107 34.455 32.2699C34.7568 31.6776 34.8826 31.0374 34.9422 30.3086C35 29.6007 35 28.7266 35 27.6429V27.6428V27.5999V24.3999V24.3571V24.357C35 23.2733 35 22.3992 34.9422 21.6913C34.8826 20.9625 34.7568 20.3223 34.455 19.73C33.9757 18.7892 33.2108 18.0243 32.27 17.5449C31.6777 17.2431 31.0375 17.1173 30.3086 17.0578C30.0636 17.0377 29.7987 17.0247 29.5121 17.0161L28.72 15.9599L28.6374 15.8497C28.0134 15.0172 27.5818 14.4413 27.0224 14.0168C26.5285 13.6421 25.9692 13.3624 25.3731 13.1922C24.6978 12.9993 23.9781 12.9996 22.9378 12.9999L22.8 12.9999H16ZM24 18.9999H27.6C28.7366 18.9999 29.5289 19.0007 30.1458 19.0511C30.7509 19.1006 31.0986 19.1927 31.362 19.3269C31.9265 19.6145 32.3854 20.0735 32.673 20.638C32.8072 20.9013 32.8994 21.249 32.9488 21.8542C32.9527 21.9018 32.9563 21.9504 32.9596 22.0001C30.7691 22.0218 29 23.8043 29 25.9999C29 28.1956 30.7691 29.9781 32.9596 29.9997C32.9563 30.0495 32.9527 30.0981 32.9488 30.1457C32.8994 30.7509 32.8072 31.0986 32.673 31.3619C32.3854 31.9264 31.9265 32.3853 31.362 32.673C31.0986 32.8071 30.7509 32.8993 30.1458 32.9488C29.5289 32.9992 28.7366 32.9999 27.6 32.9999H20.4C19.2634 32.9999 18.4711 32.9992 17.8542 32.9488C17.2491 32.8993 16.9014 32.8071 16.638 32.673C16.0735 32.3853 15.6146 31.9264 15.327 31.3619C15.1928 31.0986 15.1006 30.7509 15.0512 30.1457C15.0008 29.5289 15 28.7365 15 27.5999V18.9999L16 18.9999L24 18.9999ZM32.9999 27.9999C33 27.8715 33 27.7383 33 27.5999V24.3999C33 24.2616 33 24.1284 32.9999 23.9999C31.8954 24 31 24.8954 31 25.9999C31 27.1045 31.8954 27.9999 32.9999 27.9999Z" fill="#FCA5A5"/>
</g>
<rect x="1.5" y="1.5" width="45" height="45" rx="22.5" stroke="#FECACA" stroke-width="3"/>
</g>
<defs>
<filter id="filter0_i_139_155" x="0" y="0" width="48" height="50" filterUnits="userSpaceOnUse" color-interpolation-filters="sRGB">
<feFlood flood-opacity="0" result="BackgroundImageFix"/>
<feBlend mode="normal" in="SourceGraphic" in2="BackgroundImageFix" result="shape"/>
<feColorMatrix in="SourceAlpha" type="matrix" values="0 0 0 0 0 0 0 0 0 0 0 0 0 0 0 0 0 0 127 0" result="hardAlpha"/>
<feOffset dy="2"/>
<feGaussianBlur stdDeviation="8"/>
<feComposite in2="hardAlpha" operator="arithmetic" k2="-1" k3="1"/>
<feColorMatrix type="matrix" values="0 0 0 0 0.996078 0 0 0 0 0.792157 0 0 0 0 0.792157 0 0 0 1 0"/>
<feBlend mode="normal" in2="shape" result="effect1_innerShadow_139_155"/>
</filter>
<clipPath id="clip0_139_155">
<rect width="48" height="48" rx="24" fill="white"/>
</clipPath>
</defs>
</svg>
