<svg width="48" height="48" viewBox="0 0 48 48" fill="none" xmlns="http://www.w3.org/2000/svg">
<g filter="url(#filter0_i_233_160)">
<g clip-path="url(#clip0_233_160)">
<rect width="48" height="48" rx="24" fill="#FEF2F2"/>
<line y1="12.25" x2="49" y2="12.25" stroke="#FECACA" stroke-opacity="0.5"/>
<line y1="35.75" x2="49" y2="35.75" stroke="#FECACA" stroke-opacity="0.5"/>
<line x1="11.75" y1="48" x2="11.75" y2="1" stroke="#FECACA" stroke-opacity="0.5"/>
<line x1="36.25" y1="48" x2="36.25" y2="1" stroke="#FECACA" stroke-opacity="0.5"/>
<g clip-path="url(#clip1_233_160)">
<rect opacity="0.25" x="14" y="14" width="20" height="20" rx="6" fill="#FCA5A5"/>
<path fill-rule="evenodd" clip-rule="evenodd" d="M21 13C21 12.4477 20.5523 12 20 12C19.4477 12 19 12.4477 19 13V13.1444C18.1867 13.2473 17.4776 13.4289 16.8221 13.763C15.5049 14.4341 14.4341 15.5049 13.763 16.8221C13.3522 17.6283 13.1719 18.5154 13.0851 19.5778C13 20.6191 13 21.913 13 23.5556V23.5556L13 23.6V24.4L13 24.4444V24.4444C13 26.087 13 27.3809 13.0851 28.4222C13.1719 29.4846 13.3522 30.3717 13.763 31.1779C14.4341 32.4951 15.5049 33.5659 16.8221 34.237C17.6283 34.6478 18.5154 34.8281 19.5778 34.9149C20.6191 35 21.913 35 23.5556 35H23.6H24.4H24.4444C26.087 35 27.3809 35 28.4222 34.9149C29.4846 34.8281 30.3717 34.6478 31.1779 34.237C32.4951 33.5659 33.5659 32.4951 34.237 31.1779C34.6478 30.3717 34.8281 29.4846 34.9149 28.4222C35 27.3809 35 26.087 35 24.4444V24.4V23.6V23.5556C35 21.913 35 20.6191 34.9149 19.5778C34.8281 18.5154 34.6478 17.6283 34.237 16.8221C33.5659 15.5049 32.4951 14.4341 31.1779 13.763C30.5224 13.4289 29.8133 13.2473 29 13.1444V13C29 12.4477 28.5523 12 28 12C27.4477 12 27 12.4477 27 13V13.0173C26.2557 13 25.4103 13 24.4444 13H24.4444L24.4 13H23.6L23.5556 13H23.5556C22.5897 13 21.7443 13 21 13.0173V13ZM27 16V15.0178C26.2782 15.0003 25.428 15 24.4 15H23.6C22.572 15 21.7218 15.0003 21 15.0178V16C21 16.5523 20.5523 17 20 17C19.4477 17 19 16.5523 19 16V15.1643C18.4643 15.2491 18.0678 15.3729 17.73 15.545C16.7892 16.0243 16.0243 16.7892 15.545 17.73C15.3018 18.2073 15.1551 18.802 15.0784 19.7406C15.0008 20.691 15 21.9033 15 23.6V24.4C15 26.0967 15.0008 27.309 15.0784 28.2594C15.1551 29.198 15.3018 29.7927 15.545 30.27C16.0243 31.2108 16.7892 31.9757 17.73 32.455C18.2073 32.6982 18.802 32.8449 19.7406 32.9216C20.691 32.9992 21.9033 33 23.6 33H24.4C26.0967 33 27.309 32.9992 28.2594 32.9216C29.198 32.8449 29.7927 32.6982 30.27 32.455C31.2108 31.9757 31.9757 31.2108 32.455 30.27C32.6982 29.7927 32.8449 29.198 32.9216 28.2594C32.9992 27.309 33 26.0967 33 24.4V23.6C33 21.9033 32.9992 20.691 32.9216 19.7406C32.8449 18.802 32.6982 18.2073 32.455 17.73C31.9757 16.7892 31.2108 16.0243 30.27 15.545C29.9322 15.3729 29.5357 15.2491 29 15.1643V16C29 16.5523 28.5523 17 28 17C27.4477 17 27 16.5523 27 16ZM24 22.5858L21.7071 20.2929C21.3166 19.9024 20.6834 19.9024 20.2929 20.2929C19.9024 20.6834 19.9024 21.3166 20.2929 21.7071L22.5858 24L20.2929 26.2929C19.9024 26.6834 19.9024 27.3166 20.2929 27.7071C20.6834 28.0976 21.3166 28.0976 21.7071 27.7071L24 25.4142L26.2929 27.7071C26.6834 28.0976 27.3166 28.0976 27.7071 27.7071C28.0976 27.3166 28.0976 26.6834 27.7071 26.2929L25.4142 24L27.7071 21.7071C28.0976 21.3166 28.0976 20.6834 27.7071 20.2929C27.3166 19.9024 26.6834 19.9024 26.2929 20.2929L24 22.5858Z" fill="#FCA5A5"/>
</g>
</g>
<rect x="1.5" y="1.5" width="45" height="45" rx="22.5" stroke="#FECACA" stroke-width="3"/>
</g>
<defs>
<filter id="filter0_i_233_160" x="0" y="0" width="48" height="50" filterUnits="userSpaceOnUse" color-interpolation-filters="sRGB">
<feFlood flood-opacity="0" result="BackgroundImageFix"/>
<feBlend mode="normal" in="SourceGraphic" in2="BackgroundImageFix" result="shape"/>
<feColorMatrix in="SourceAlpha" type="matrix" values="0 0 0 0 0 0 0 0 0 0 0 0 0 0 0 0 0 0 127 0" result="hardAlpha"/>
<feOffset dy="2"/>
<feGaussianBlur stdDeviation="8"/>
<feComposite in2="hardAlpha" operator="arithmetic" k2="-1" k3="1"/>
<feColorMatrix type="matrix" values="0 0 0 0 0.996078 0 0 0 0 0.792157 0 0 0 0 0.792157 0 0 0 1 0"/>
<feBlend mode="normal" in2="shape" result="effect1_innerShadow_233_160"/>
</filter>
<clipPath id="clip0_233_160">
<rect width="48" height="48" rx="24" fill="white"/>
</clipPath>
<clipPath id="clip1_233_160">
<rect width="24" height="24" fill="white" transform="translate(12 12)"/>
</clipPath>
</defs>
</svg>
