<svg width="48" height="48" viewBox="0 0 48 48" fill="none" xmlns="http://www.w3.org/2000/svg">
<g filter="url(#filter0_i_139_116)">
<g clip-path="url(#clip0_139_116)">
<rect width="48" height="48" rx="24" fill="#FEF2F2"/>
<line y1="12.25" x2="49" y2="12.25" stroke="#FECACA" stroke-opacity="0.5"/>
<line y1="35.75" x2="49" y2="35.75" stroke="#FECACA" stroke-opacity="0.5"/>
<line x1="11.75" y1="48" x2="11.75" y2="1" stroke="#FECACA" stroke-opacity="0.5"/>
<line x1="36.25" y1="48" x2="36.25" y2="1" stroke="#FECACA" stroke-opacity="0.5"/>
<path opacity="0.25" d="M27 28C30.866 28 34 24.866 34 21C34 20.305 33.8987 19.6337 33.7101 19L31.2627 21.4474L31.2627 21.4474C30.4707 22.2394 30.0747 22.6354 29.618 22.7838C29.2163 22.9143 28.7837 22.9143 28.382 22.7838C27.9253 22.6354 27.5293 22.2394 26.7373 21.4474L26.5526 21.2627C25.7606 20.4707 25.3646 20.0747 25.2162 19.618C25.0857 19.2163 25.0857 18.7837 25.2162 18.382C25.3646 17.9253 25.7606 17.5293 26.5526 16.7373L29 14.2899C28.3663 14.1013 27.695 14 27 14C23.134 14 20 17.134 20 21C20 22.0736 20.0681 23.5907 20.5 24.5L14.5 30.5L14.4999 30.5001C14.4203 30.5797 14.3805 30.6195 14.3485 30.6547C13.6551 31.4176 13.6551 32.5824 14.3485 33.3453C14.3805 33.3805 14.4203 33.4203 14.4999 33.4999L14.5 33.5C14.5797 33.5797 14.6195 33.6195 14.6547 33.6515C15.4176 34.3449 16.5824 34.3449 17.3453 33.6515C17.3805 33.6195 17.4203 33.5797 17.5 33.5L23.5 27.5C24.4093 27.9319 25.9264 28 27 28Z" fill="#FCA5A5"/>
<path fill-rule="evenodd" clip-rule="evenodd" d="M26.8744 15.0013C23.6187 15.0682 21 17.7283 21 21C21 21.5197 21.0167 22.1253 21.0817 22.6991C21.1487 23.2907 21.2586 23.7665 21.4033 24.0709C21.5848 24.453 21.5062 24.908 21.2071 25.2071L15.2071 31.2071C15.1193 31.2949 15.1004 31.3142 15.0885 31.3274C14.7418 31.7088 14.7418 32.2912 15.0885 32.6726C15.1004 32.6858 15.1193 32.7051 15.2071 32.7929C15.2949 32.8807 15.3142 32.8996 15.3274 32.9116C15.7088 33.2582 16.2912 33.2582 16.6726 32.9116C16.6858 32.8996 16.7051 32.8807 16.7929 32.7929L22.7929 26.7929C23.092 26.4938 23.547 26.4152 23.9291 26.5967C24.2335 26.7414 24.7093 26.8514 25.3009 26.9183C25.8747 26.9833 26.4803 27 27 27C30.2717 27 32.9318 24.3813 32.9987 21.1256L31.9699 22.1545L31.9426 22.1817C31.5699 22.5545 31.2483 22.8761 30.9618 23.1193C30.6594 23.376 30.3309 23.6036 29.9271 23.7349C29.3245 23.9306 28.6755 23.9306 28.073 23.7349C27.6691 23.6036 27.3406 23.376 27.0382 23.1193C26.7517 22.8761 26.4301 22.5545 26.0574 22.1817L26.0302 22.1545L25.8455 21.9698L25.8183 21.9426C25.4455 21.5699 25.1239 21.2483 24.8807 20.9618C24.624 20.6594 24.3964 20.3309 24.2651 19.9271C24.0694 19.3245 24.0694 18.6755 24.2651 18.0729C24.3964 17.6691 24.624 17.3406 24.8807 17.0382C25.1239 16.7517 25.4455 16.4301 25.8183 16.0574L25.8455 16.0302L26.8744 15.0013ZM19 21C19 16.5817 22.5817 13 27 13C27.7926 13 28.56 13.1156 29.2853 13.3314C29.623 13.4319 29.8829 13.7028 29.9694 14.0443C30.0559 14.3859 29.9563 14.7478 29.7071 14.997L27.2597 17.4444C26.852 17.852 26.5894 18.1158 26.4054 18.3326C26.229 18.5403 26.1844 18.6382 26.1673 18.691C26.102 18.8918 26.102 19.1082 26.1673 19.309C26.1844 19.3618 26.229 19.4597 26.4054 19.6674C26.5894 19.8842 26.852 20.148 27.2597 20.5556L27.4444 20.7403C27.8521 21.148 28.1158 21.4106 28.3326 21.5946C28.5403 21.771 28.6382 21.8156 28.691 21.8328C28.8918 21.898 29.1082 21.898 29.309 21.8328C29.3618 21.8156 29.4597 21.771 29.6674 21.5946C29.8842 21.4106 30.148 21.148 30.5556 20.7403L33.003 18.2929C33.2522 18.0437 33.6141 17.9441 33.9557 18.0306C34.2972 18.1171 34.5681 18.377 34.6686 18.7148C34.8844 19.4401 35 20.2074 35 21C35 25.4183 31.4183 29 27 29C26.4461 29 25.7563 28.9827 25.0759 28.9056C24.6487 28.8573 24.1905 28.7819 23.7567 28.6575L18.2071 34.2071L18.1927 34.2215C18.1274 34.2868 18.0713 34.3429 18.0179 34.3915C16.8737 35.4316 15.1263 35.4316 13.9821 34.3915C13.9287 34.3429 13.8726 34.2868 13.8073 34.2215L13.7929 34.2071L13.7785 34.1927C13.7132 34.1274 13.6571 34.0713 13.6085 34.0179C12.5684 32.8737 12.5684 31.1263 13.6085 29.9821C13.6571 29.9287 13.7132 29.8726 13.7785 29.8073L13.7929 29.7929L19.3425 24.2433C19.2181 23.8095 19.1427 23.3513 19.0944 22.9241C19.0173 22.2437 19 21.5539 19 21Z" fill="#FCA5A5"/>
</g>
<rect x="1.5" y="1.5" width="45" height="45" rx="22.5" stroke="#FECACA" stroke-width="3"/>
</g>
<defs>
<filter id="filter0_i_139_116" x="0" y="0" width="48" height="50" filterUnits="userSpaceOnUse" color-interpolation-filters="sRGB">
<feFlood flood-opacity="0" result="BackgroundImageFix"/>
<feBlend mode="normal" in="SourceGraphic" in2="BackgroundImageFix" result="shape"/>
<feColorMatrix in="SourceAlpha" type="matrix" values="0 0 0 0 0 0 0 0 0 0 0 0 0 0 0 0 0 0 127 0" result="hardAlpha"/>
<feOffset dy="2"/>
<feGaussianBlur stdDeviation="8"/>
<feComposite in2="hardAlpha" operator="arithmetic" k2="-1" k3="1"/>
<feColorMatrix type="matrix" values="0 0 0 0 0.996078 0 0 0 0 0.792157 0 0 0 0 0.792157 0 0 0 1 0"/>
<feBlend mode="normal" in2="shape" result="effect1_innerShadow_139_116"/>
</filter>
<clipPath id="clip0_139_116">
<rect width="48" height="48" rx="24" fill="white"/>
</clipPath>
</defs>
</svg>
